<?xml version="1.0" encoding="utf-8"?>
<!-- Generator: Adobe Illustrator 27.4.1, SVG Export Plug-In . SVG Version: 6.00 Build 0)  -->
<svg version="1.1" id="Layer_1" xmlns="http://www.w3.org/2000/svg" xmlns:xlink="http://www.w3.org/1999/xlink" x="0px" y="0px"
	 viewBox="0 0 1224 792" style="enable-background:new 0 0 1224 792;" xml:space="preserve">
<style type="text/css">
	.st0{display:none;fill:#111827;}
	.st1{fill:#FFFFFF;}
	.st2{fill:#FC3232;}
</style>
<rect y="-3.48" class="st0" width="1224" height="795.48"/>
<g>
	<g>
		<g>
			<polygon class="st1" points="539.33,269.36 569.73,286.91 569.73,370.83 539.33,388.39 			"/>
		</g>
		<g>
			<polygon class="st1" points="539.33,397.52 569.73,379.96 569.73,415.07 539.33,432.63 			"/>
		</g>
		<g>
			<polygon class="st2" points="692.58,255.66 611.99,302.2 531.42,255.66 531.42,476.87 501.01,459.31 501.01,203 533.4,221.69 
				611.99,267.08 690.6,221.69 722.99,203 722.99,459.31 692.58,476.87 			"/>
		</g>
		<g>
			<polygon class="st1" points="654.27,370.83 654.27,286.91 684.67,269.36 684.67,388.39 			"/>
		</g>
		<g>
			<polygon class="st1" points="654.27,415.07 654.27,379.96 684.67,397.52 684.67,432.63 			"/>
		</g>
		<g>
			<polygon class="st1" points="537.35,214.84 504.97,196.16 535.37,178.6 611.99,222.83 652.28,199.58 688.63,178.6 719.03,196.16 
				686.65,214.84 611.99,257.95 			"/>
		</g>
		<g>
			<polygon class="st2" points="424.39,415.06 424.39,198.44 460.71,177.46 537.35,133.21 575.67,111.1 611.99,90.12 648.33,111.1 
				686.65,133.21 799.61,198.44 799.61,415.06 730.9,454.75 730.9,419.63 769.22,397.53 769.22,215.98 728.92,192.73 690.6,170.61 
				654.16,149.59 652.29,148.48 611.99,125.22 569.74,149.62 569.74,149.64 533.4,170.61 495.08,192.73 454.78,215.98 
				454.78,397.53 493.1,419.63 493.1,454.75 			"/>
		</g>
		<g>
			<path class="st2" d="M539.33,481.43v-35.11l30.4,17.55l0,0c0.97,0.56,1.93,1.12,2.9,1.68L612,488.28
				c12.84-7.41,25.67-14.82,38.51-22.23c0.29-0.17,0.57-0.33,0.86-0.5l0,0c0.97-0.56,1.93-1.12,2.9-1.68c0.01,0,1.53-0.88,1.53-0.88
				c2.19-1.26,26.64-15.38,28.87-16.66c0,11.7,0,23.41,0,35.11L612,523.39L539.33,481.43z"/>
		</g>
	</g>
	<g>
		<path class="st1" d="M525.71,587.64l10.1-43.53h10.79v65.67h-10.53v-30.21l-6.43,30.21h-7.68l-6.66-30.41v30.41h-10.63v-65.67
			h10.79L525.71,587.64z"/>
		<path class="st1" d="M582.75,586.23l3.12,23.55h-11.02l-1.8-13.65h-8.04l-1.84,13.65h-10.99l3.12-23.46l6.66-42.22h14.17
			L582.75,586.23z M571.63,585.64l-2.62-19.88l-2.62,19.88H571.63z"/>
		<path class="st1" d="M591.45,609.78v-65.67h10.92v55.21h14.79v10.46H591.45z"/>
		<path class="st1" d="M622.74,544.11h15.12c8.79,0.02,13.19,4.76,13.19,14.2v37.3c0,9.43-4.58,14.15-13.75,14.17h-14.56V544.11z
			 M633.67,554.58v44.74h3.25c2.14,0,3.21-1.24,3.21-3.71v-37.3c0-2.49-1.07-3.74-3.21-3.74H633.67z"/>
		<path class="st1" d="M658.92,544.11h25.72v10.46h-14.79v17.12h12.73v10.5h-12.73v17.12h14.79v10.46h-25.72V544.11z"/>
		<path class="st1" d="M712.53,609.78h-14.17l-6.66-42.19l-3.12-23.49h11.02l5.81,51.47l5.84-51.47h11.02l-3.12,23.55L712.53,609.78
			z"/>
		<path class="st1" d="M511.82,669.67l3.12,20.73h-11.02l-1.8-12.01h-8.04l-1.84,12.01h-10.99l3.12-20.63l6.66-37.17h14.17
			L511.82,669.67z M500.7,669.14l-2.62-17.48l-2.62,17.48H500.7z"/>
		<path class="st1" d="M548.16,678.95c0,8.31-4.72,12.48-14.17,12.5c-9.43,0-14.14-4.17-14.14-12.5v-34.64
			c0-8.31,4.71-12.47,14.14-12.47c9.45,0,14.17,4.16,14.17,12.47v8.2h-10.92v-8.2c0-2.17-1.07-3.26-3.21-3.28h-0.07
			c-2.12,0-3.18,1.09-3.18,3.28v34.64c0,2.17,1.07,3.25,3.21,3.25c2.17,0,3.25-1.08,3.25-3.25v-8.2h10.92V678.95z"/>
		<path class="st1" d="M583.33,669.67l3.12,20.73h-11.02l-1.8-12.01h-8.04l-1.84,12.01h-10.99l3.12-20.63l6.66-37.17h14.17
			L583.33,669.67z M572.21,669.14l-2.62-17.48l-2.62,17.48H572.21z"/>
		<path class="st1" d="M592.02,632.6h15.12c8.79,0.02,13.19,4.19,13.19,12.5v32.84c0,8.29-4.58,12.44-13.75,12.47h-14.56V632.6z
			 M602.95,641.82v39.36h3.25c2.14,0,3.21-1.08,3.21-3.25V645.1c0-2.19-1.07-3.28-3.21-3.28H602.95z"/>
		<path class="st1" d="M628.2,632.6h25.72v9.22h-14.79v15.06h12.73v9.25h-12.73v15.06h14.79v9.22H628.2V632.6z"/>
		<path class="st1" d="M681.84,670.92l10.1-38.31h10.79v57.8H692.2v-26.6l-6.43,26.6h-7.68l-6.66-26.77v26.77h-10.63v-57.8h10.79
			L681.84,670.92z"/>
		<path class="st1" d="M719.86,632.6l5.67,22.31l5.67-22.31h11.55l-11.51,32.87l-0.23,0.59v24.34h-10.92v-24.31l-0.26-0.62
			l-11.51-32.87H719.86z"/>
	</g>
</g>
<path class="st2" d="M620.48,507.74c-0.83,0.08-1.66,0.15-2.48,0.23"/>
<g>
</g>
<g>
</g>
<g>
</g>
<g>
</g>
<g>
</g>
</svg>
